<mxfile host="app.diagrams.net" modified="2023-12-18T07:27:39.264Z" agent="Mozilla/5.0 (Macintosh; Intel Mac OS X 10_15_7) AppleWebKit/537.36 (KHTML, like Gecko) Chrome/120.0.0.0 Safari/537.36" version="22.1.11" etag="K4yp09lkNF1vk_UEMCgX" type="github">
  <diagram name="ページ1" id="mtPOVXwA2-qFS6rOfZbM">
    <mxGraphModel>
      <root>
        <mxCell id="0" />
        <mxCell id="1" parent="0" />
      </root>
    </mxGraphModel>
  </diagram>
</mxfile>
